inDegrees=no
num_controls=7
num_derivatives=13
num_iterations=73
num_multipliers=7
num_parameters=0
num_slacks=7
num_states=26
objective=0.248507
objective_accelerations=0.000000
objective_balance=0.002143
objective_effort=0.071347
objective_height=0.175018
objective_ligament=0.000000
solver_duration=791.616067
status=Solve_Succeeded
success=true
DataType=double
version=3
OpenSimVersion=4.5
endheader
time	/jointset/ground_pelvis/pelvis_tilt/value	/jointset/ground_pelvis/pelvis_tx/value	/jointset/ground_pelvis/pelvis_ty/value	/jointset/hip_r/hip_flexion_r/value	/jointset/hip_r/hip_adduction_r/value	/jointset/hip_r/hip_rotation_r/value	/jointset/back/lumbar_extension/value	/jointset/patellofemoral_r/patellar_flexion_r/value	/jointset/knee_r/knee_flexion_r/value	/jointset/knee_r/knee_adduction_r/value	/jointset/knee_r/knee_rotation_r/value	/jointset/ankle_r/ankle_angle_r/value	/jointset/subtalar_r/subtalar_angle_r/value	/jointset/ground_pelvis/pelvis_tilt/speed	/jointset/ground_pelvis/pelvis_tx/speed	/jointset/ground_pelvis/pelvis_ty/speed	/jointset/hip_r/hip_flexion_r/speed	/jointset/hip_r/hip_adduction_r/speed	/jointset/hip_r/hip_rotation_r/speed	/jointset/back/lumbar_extension/speed	/jointset/patellofemoral_r/patellar_flexion_r/speed	/jointset/knee_r/knee_flexion_r/speed	/jointset/knee_r/knee_adduction_r/speed	/jointset/knee_r/knee_rotation_r/speed	/jointset/ankle_r/ankle_angle_r/speed	/jointset/subtalar_r/subtalar_angle_r/speed	/forceset/tau_hip_flexion_r	/forceset/tau_hip_adduction_r	/forceset/tau_hip_rotation_r	/forceset/tau_knee_flexion_r	/forceset/tau_ankle_angle_r	/forceset/tau_subtalar_angle_r	/forceset/tau_lumbar_extension	lambda_cid13_p0	lambda_cid14_p0	lambda_cid14_p1	lambda_cid14_p2	lambda_cid14_p3	lambda_cid14_p4	lambda_cid14_p5	/jointset/ground_pelvis/pelvis_tilt/accel	/jointset/ground_pelvis/pelvis_tx/accel	/jointset/ground_pelvis/pelvis_ty/accel	/jointset/hip_r/hip_flexion_r/accel	/jointset/hip_r/hip_adduction_r/accel	/jointset/hip_r/hip_rotation_r/accel	/jointset/back/lumbar_extension/accel	/jointset/patellofemoral_r/patellar_flexion_r/accel	/jointset/knee_r/knee_flexion_r/accel	/jointset/knee_r/knee_adduction_r/accel	/jointset/knee_r/knee_rotation_r/accel	/jointset/ankle_r/ankle_angle_r/accel	/jointset/subtalar_r/subtalar_angle_r/accel	gamma_cid13_p0	gamma_cid14_p0	gamma_cid14_p1	gamma_cid14_p2	gamma_cid14_p3	gamma_cid14_p4	gamma_cid14_p5
1	-0.2150967966513727	-0.04757813203464271	0.3558652174026028	2.181509627677399	-0.220868732094116	0.1326517068318112	-0.7852300130758558	2.181559909629503	2.181559909629827	-0.1716922874821575	0.1728448350643343	0.3501824341298022	0.1600944985907582	0.01338118923753745	-0.004810437878679804	-0.001607198349491155	-0.002084460858860707	0.014612127212834	0.1500551960187685	0.000677556104874639	-0.002575823863262848	-0.00257582386326279	0.1247908149932558	0.04692365376012218	-0.01153229770062589	0.01571291752492162	-0.2608992444585163	-0.02380039023765991	-0.01502383506284947	-0.4253726346549042	0.07866245133799109	-0.0261058901087323	0.2865275459305722	-0.02658028901308004	-22.49512741545503	-19.61438495575917	8.503885859123598	7.456906909315326	-662.7657932741213	58.85692575629715	-0.06904498304674726	-0.09352231159150133	-0.05053604854131742	0.3108261627315	0.1265617225191664	0.8432838239538574	0.294869466766045	-0.07171305600402988	-0.07171305600403009	0.7045962103441952	0.2338816806055218	-0.3242820289448328	0.04470917493562238	7.269688385643917e-08	8.144280041879449e-08	4.123981042181738e-08	2.566379021233863e-08	4.823070685375739e-08	-6.625560876796384e-08	3.080426307136246e-07
1.01	-0.2149637049900413	-0.04763076929460536	0.3558469278843871	2.181500822323104	-0.2207159721390734	0.1341614933183209	-0.7852116539021808	2.181531634077869	2.181531634077928	-0.1704391830421493	0.1733087909984841	0.3500522455670834	0.1602557051078825	0.01350685986830151	-0.005703104798277044	-0.002020394987611622	-1.476517347458313e-05	0.01594790070545099	0.1488472277465627	0.002682294732307933	-0.002986538442252276	-0.002986538442252324	0.1230585870818508	0.04433602660935292	-0.01438277788447842	0.01666367704771289	-0.2607078230242673	-0.02397764421465675	-0.01509738278971797	-0.4253385386306419	0.07899535915463872	-0.02621412815858281	0.2862170876679736	-0.02651720182419305	-22.3711182481226	-19.59321463190641	8.447436969204171	7.211394335775717	-662.4823252587647	59.24847256948905	0.09380303684341421	-0.0850665857506168	-0.03214566798350497	0.1042931126229117	0.1382902672352262	-1.0610761196032	0.1064784758067575	-0.01181811825795614	-0.01181811825796621	-1.027837671664394	-0.7348259151893065	-0.2470574387824815	0.140543173908672	-9.99422635879949e-08	-1.107955181590838e-07	-5.56340344644266e-08	-2.964749531857295e-08	-6.931748728162972e-08	9.466271071152844e-08	-4.097503181476678e-07
1.02	-0.2148212706322613	-0.04769191876448534	0.355825419560483	2.181502564293897	-0.2205496134281851	0.1355675523287461	-0.7851826068592159	2.181502037888563	2.181502037888349	-0.1692865419572072	0.1737009224606688	0.3498972269173906	0.1604304759868263	0.01524972852728573	-0.006512879862142099	-0.002250959487169386	2.500415914237559e-05	0.01733187838215849	0.1293097008025418	0.002815129962734875	-0.002839951397703373	-0.002839951397703532	0.1046981439791833	0.03255875936773733	-0.01649831509541173	0.01842578988881604	-0.260516401590018	-0.02415489819165465	-0.01517093051658296	-0.4253044426063796	0.07932826697128564	-0.02632236620843498	0.2859066294053746	-0.0264582979446963	-22.24963173135134	-19.57874993827205	8.399211164380501	6.994330881617764	-662.2090233441604	59.60043889839077	0.2543946225972794	-0.07694394044505526	-0.01400962082880243	-0.09515910782225752	0.1362025593372695	-2.822627910409108	-0.07951121263531175	0.03974726870369919	0.03974726870369821	-2.621046827908282	-1.604046337563724	-0.1772934343609952	0.2069798385979957	-4.331643995738136e-06	-4.891580181822634e-06	-2.318475621648226e-06	-1.43687137391502e-06	-2.807841335666062e-06	3.989902183695968e-06	-1.767001282756387e-05
1.03	-0.2146588633331107	-0.04776111575952931	0.3558019608474901	2.181495463018518	-0.2203494368105794	0.1364584504093288	-0.7851552990078542	2.181480626361765	2.181480626361567	-0.1686205995803707	0.1737780719151497	0.3497309298133774	0.1606674124960062	0.01698471482107819	-0.007336749207017384	-0.002479335294673228	-0.001599603037332006	0.02434646605995389	0.02631561510805297	0.002947248626398269	-0.0009662561142920782	-0.0009662561142920663	0.006947302929668035	-0.03147983995912874	-0.01613990370707611	0.03245545302429089	-0.2606579242397136	-0.02226890900891638	-0.01906555102409638	-0.4243993715683846	0.07922218257288757	-0.02580956431697463	0.286182449339773	-0.02628061902219891	-22.19037997415239	-19.24692304846269	8.233525322610163	6.284798087952324	-661.8749565663443	60.65099823485829	0.09362286401915336	-0.08777432172136081	-0.0314259003973465	-0.2214164515566475	1.230435729646375	-17.42162822825894	0.1046946531104783	0.3343421860356554	0.3343421860356849	-16.58202710441114	-10.95775342533381	0.2336679697825467	2.524202841712446	-8.604764733854684e-06	-9.719186746966676e-06	-4.603418920488136e-06	-2.857890278971328e-06	-5.573109833583663e-06	7.923246974573337e-06	-3.509907604678174e-05
